<?xml version="1.0" encoding="UTF-8" standalone="no"?>
<svg
   version="1.1"
   width="1536.988"
   height="2095.8396"
   id="svg15"
   viewBox="0 0 1536.9881 2095.8396"
   sodipodi:docname="0e2c286f145c7886e520bc208c6cc22d.cdr"
   xmlns:inkscape="http://www.inkscape.org/namespaces/inkscape"
   xmlns:sodipodi="http://sodipodi.sourceforge.net/DTD/sodipodi-0.dtd"
   xmlns="http://www.w3.org/2000/svg"
   xmlns:svg="http://www.w3.org/2000/svg">
  <defs
     id="defs19" />
  <sodipodi:namedview
     id="namedview17"
     pagecolor="#ffffff"
     bordercolor="#666666"
     borderopacity="1.0"
     inkscape:pageshadow="2"
     inkscape:pageopacity="0.0"
     inkscape:pagecheckerboard="0" />
  <g
     id="Layer1000"
     transform="translate(-81.890143,-227.72459)">
    <path
       d="m 1341.7698,1345.2748 c 5.8439,-31.4684 16.434,-64.148 22.8334,-96.6339 5.6529,-28.6986 7.3022,-72.5078 22.3406,-90.6471 90.2331,-108.8385 204.5696,-34.3342 164.6986,56.4184 -35.1528,80.017 -123.9623,115.2179 -209.8726,130.8626 z m 149.4519,15.9077 c 106.2584,-59.0371 179.291,-228.0907 81.2429,-294.7853 -24.3811,-16.5848 -57.0513,-26.7943 -93.6371,-23.7575 -43.0479,3.5723 -59.4058,10.3016 -90.7139,29.6455 l 0.7773,-44.8588 -1232.8835,1.6906 c -4.1719,274.8379 41.9342,469.1553 235.855,638.3076 14.806,18.1206 37.8237,18.7309 64.6594,25.1344 66.6225,15.8944 137.5224,34.5465 197.9685,61.075 59.1761,25.9704 91.9197,59.3083 108.1547,66.091 12.8242,-12.7481 17.4956,-20.8596 28.278,-33.0308 119.6462,-135.0665 232.2346,-192.0431 413.4112,-236.6121 51.548,-12.6801 43.0586,-8.7579 68.6484,-49.3353 9.3053,-14.7566 34.5158,-69.5083 41.4534,-76.2443 31.8717,-30.9462 131.2792,-38.0374 176.7857,-63.32 z"
       style="fill:#89482c;fill-rule:evenodd;stroke:#89482c;stroke-width:0.5669;stroke-linecap:butt;stroke-linejoin:miter;stroke-dasharray:none"
       id="path2" />
    <path
       d="m 429.4443,1896.1912 c 161.5884,78.9179 239.47,92.5421 410.142,191.0522 l 182.3866,119.4232 c -20.5872,-65.0747 -112.8221,-188.6778 -151.5005,-235.0711 -49.5902,-59.4819 -127.4345,-135.2548 -211.7662,-174.6824 -132.8644,-62.118 -310.4675,-76.4553 -446.5556,-132.9659 -75.0451,-31.1625 -86.6515,-54.0773 -117.7218,-70.0051 -37.6101,65.8038 20.6512,288.3151 49.9655,363.7488 87.3018,224.6426 254.4149,338.1191 496.0831,362.2171 116.7683,11.6437 279.5586,-7.5372 372.8111,-47.3227 -22.211,-33.0081 -328.7896,-213.899 -392.1416,-250.6329 -233.8732,-104.6973 -338.497,-193.798 -353.2069,-207.1684 -26.5406,-24.1221 44.0455,27.414 161.5043,81.4072 z"
       style="fill:#68b831;fill-rule:evenodd;stroke:#68b831;stroke-width:0.5669;stroke-linecap:butt;stroke-linejoin:miter;stroke-dasharray:none"
       id="path4" />
    <path
       d="m 884.8191,1916.3332 c 21.6929,-6.111 61.9511,-31.0196 85.0208,-42.6553 142.9083,-72.0778 274.7671,-119.6222 410.1622,-202.2633 34.3716,-20.9785 120.9175,-81.052 134.8902,-105.2034 -47.6806,112.9503 -318.4213,229.9403 -440.4766,294.0735 -30.0955,15.813 -132.4731,74.1571 -149.707,94.1647 13.074,18.1499 27.8146,32.6128 43.3458,54.4446 42.4056,59.6061 82.9015,167.7581 101.5803,191.4622 129.9278,0.418 320.7663,-131.4195 398.8897,-247.5521 69.9717,-104.0149 158.2404,-341.1759 122.8018,-505.4058 -30.3372,19.3212 -48.5954,37.7917 -89.5534,58.2493 -168.8759,84.3545 -383.2609,74.0288 -548.9211,190.5608 -35.1662,24.7377 -135.6501,112.3387 -146.7864,145.1745 21.6889,24.2182 54.1575,51.9059 78.7537,74.9503 z"
       style="fill:#68b831;fill-rule:evenodd;stroke:#68b831;stroke-width:0.5669;stroke-linecap:butt;stroke-linejoin:miter;stroke-dasharray:none"
       id="path6" />
    <path
       d="M 778.9214,387.575 C 778.7758,563.5381 616.5504,866.5364 748.2329,972.9684 710.273,751.2331 901.9783,556.1237 846.2383,365.2358 830.4333,311.1117 777.196,241.8143 736.5959,228.2342 c 27.0133,45.7602 42.3815,92.3404 42.3255,159.3408 z"
       style="fill:#89482c;fill-rule:evenodd;stroke:#89482c;stroke-width:0.5669;stroke-linecap:butt;stroke-linejoin:miter;stroke-dasharray:none"
       id="path8" />
    <path
       d="m 549.1921,970.8678 c -31.0985,-203.1127 215.8447,-418.8358 2.8565,-562.9179 45.4103,114.8265 34.1258,152.8305 -5.1028,286.8688 -25.0368,85.547 -65.0333,208.8537 2.2463,276.0491 z"
       style="fill:#89482c;fill-rule:evenodd;stroke:#89482c;stroke-width:0.5669;stroke-linecap:butt;stroke-linejoin:miter;stroke-dasharray:none"
       id="path10" />
    <path
       d="M 942.4889,967.3649 C 923.3173,750.8258 1153.7797,552.92 947.418,408.1742 c 17.4756,55.8455 33.2218,62.8232 27.2897,139.7993 -3.9195,50.8643 -17.9122,97.7437 -31.6205,142.7334 -23.5479,77.2846 -69.025,219.5492 -0.5983,276.658 z"
       style="fill:#89482c;fill-rule:evenodd;stroke:#89482c;stroke-width:0.5669;stroke-linecap:butt;stroke-linejoin:miter;stroke-dasharray:none"
       id="path12" />
  </g>
</svg>
